<svg id="SvgjsSvg1001" width="288" height="288" xmlns="http://www.w3.org/2000/svg" version="1.1" xmlns:xlink="http://www.w3.org/1999/xlink" xmlns:svgjs="http://svgjs.com/svgjs"><defs id="SvgjsDefs1002"></defs><g id="SvgjsG1008" transform="matrix(1,0,0,1,0,0)"><svg xmlns="http://www.w3.org/2000/svg" width="288" height="288" viewBox="0 0 16 16"><path d="M 7.9980469 3 C 5.2494336 3 3.0000002 5.2485938 3 7.9960938 C 3.0000002 10.743694 5.2494336 12.992188 7.9980469 12.992188 C 9.0122916 12.992188 9.955695 12.682664 10.746094 12.158203 L 11.279297 12.691406 A 0.9997486 0.99935702 0 1 0 12.691406 11.279297 L 12.160156 10.748047 C 12.686327 9.9572123 12.996094 9.0115444 12.996094 7.9960938 C 12.996094 5.2485938 10.74666 3 7.9980469 3 z M 7.9980469 4.9980469 C 9.6661595 4.9980469 10.998046 6.3287937 10.998047 7.9960938 C 10.998047 8.4611091 10.884644 8.8941399 10.699219 9.2851562 A 0.9997486 0.99935702 0 0 0 9.9980469 8.9960938 A 0.9997486 0.99935702 0 0 0 9.2871094 10.697266 C 8.8961601 10.882358 8.4628711 10.994141 7.9980469 10.994141 C 6.3299341 10.994141 5.0000002 9.6636937 5 7.9960938 C 5.0000002 6.3287938 6.3299341 4.9980469 7.9980469 4.9980469 z " color="#000" enable-background="accumulate" font-family="sans-serif" font-weight="400" overflow="visible" style="line-height:normal;text-indent:0;text-align:start;text-decoration-line:none;text-decoration-style:solid;text-decoration-color:#000;text-transform:none;block-progression:tb;white-space:normal;isolation:auto;mix-blend-mode:normal;solid-color:#000;solid-opacity:1" fill="#afafaf" class="color000 svgShape"></path></svg></g></svg>